# xmcd CD database file
#
# Track frame offsets:
#	150
#	17703
#	37420
#	71793
#	109705
#	122388
#	160540
#	185435
#	199888
#	221203
#	247048
#
# Disc length: 3457 seconds
#
# Revision: 0
# Processed by: cddbd v1.5.2PL0 Copyright (c) Steve Scherf et al.
# Submitted via: CDex 1.51
#
DISCID=a10d7f0b
DTITLE=Third Stream - Black Widow
DYEAR=1989
DGENRE=Jazz
TTITLE0=Sonny Who?
TTITLE1=Sanford and Son
TTITLE2=Next Time You See Me
TTITLE3=This Is It
TTITLE4=Bill Tell
TTITLE5=Black Widow
TTITLE6=Sunday In The Park
TTITLE7=Jazz Stinks
TTITLE8=Battle Hymn
TTITLE9=Streamscapes
TTITLE10=Flintstones
EXTD=YEAR: 1989
EXTT0=
EXTT1=
EXTT2=
EXTT3=
EXTT4=
EXTT5=
EXTT6=
EXTT7=
EXTT8=
EXTT9=
EXTT10=
PLAYORDER=
